<!DOCTYPE svg PUBLIC "-//W3C//DTD SVG 20010904//EN" "http://www.w3.org/TR/2001/REC-SVG-20010904/DTD/svg10.dtd">
<svg version="1.0" xmlns="http://www.w3.org/2000/svg" width="1600px" height="474px" viewBox="0 0 16000 4740" preserveAspectRatio="xMidYMid meet">
<g id="layer1" fill="#3f7fbf" stroke="none">
 <path d="M2035 4459 c-97 -9 -254 -38 -277 -50 -17 -9 -18 -54 -18 -728 0 -395 3 -721 7 -724 3 -4 29 6 57 22 118 67 1486 856 1644 949 62 36 116 70 119 75 8 13 -29 44 -147 122 -399 264 -891 383 -1385 334z"/>
 <path d="M4626 4461 c-3 -5 -1 -65 4 -133 5 -67 14 -179 20 -248 34 -433 59 -930 73 -1425 l12 -419 75 -13 c321 -54 697 -81 898 -64 305 26 448 83 585 231 80 86 143 207 178 340 19 71 23 111 23 250 0 140 -3 178 -22 249 -32 118 -66 193 -128 288 -84 126 -194 212 -334 259 -76 26 -317 27 -405 1 -96 -28 -186 -67 -249 -109 -32 -21 -60 -37 -62 -36 -1 2 -7 149 -14 328 -6 179 -15 366 -18 415 l-7 90 -312 3 c-181 1 -314 -2 -317 -7z m1079 -1146 c97 -47 162 -171 172 -330 11 -174 -59 -304 -188 -351 -53 -19 -208 -20 -289 -1 l-55 12 -13 85 c-7 48 -11 150 -10 235 3 137 5 155 29 205 35 76 70 114 131 144 71 35 149 35 223 1z"/>
 <path d="M1365 4266 c-514 -247 -922 -709 -1096 -1240 -16 -50 -26 -93 -22 -96 37 -32 1244 -721 1253 -715 7 4 10 361 10 1044 0 1023 -1 1062 -29 1061 -4 -1 -55 -25 -116 -54z"/>
 <path d="M3610 3749 c-176 -103 -687 -398 -925 -535 -88 -50 -160 -97 -160 -105 0 -11 208 -135 720 -428 66 -38 190 -109 275 -158 639 -371 804 -464 815 -459 26 10 41 256 26 441 -18 224 -47 366 -113 560 -83 246 -251 525 -434 722 l-49 53 -155 -91z"/>
 <path d="M7344 3791 c-96 -12 -207 -38 -268 -63 -199 -84 -339 -248 -398 -465 -31 -114 -31 -354 -1 -470 72 -272 215 -457 427 -553 254 -115 651 -114 896 2 68 33 101 57 166 122 140 140 190 283 182 516 -3 69 -10 135 -17 147 l-12 23 -522 2 -522 3 3 45 c8 115 58 187 160 233 145 65 332 58 641 -24 63 -16 119 -28 126 -25 12 4 6 47 -53 366 l-17 95 -125 23 c-99 18 -173 23 -360 26 -129 3 -267 1 -306 -3z m406 -1051 c0 -126 -75 -199 -206 -200 -125 0 -214 79 -248 223 l-6 27 230 0 230 0 0 -50z"/>
 <path d="M8505 3750 c-3 -6 -4 -18 -1 -28 20 -66 63 -631 77 -997 6 -159 13 -344 17 -409 l7 -119 310 0 310 1 0 85 0 85 55 -52 c165 -152 481 -204 757 -126 127 37 234 121 283 226 48 99 53 177 35 511 -8 158 -20 407 -26 553 -5 146 -14 268 -18 273 -4 4 -147 6 -317 5 l-309 -3 2 -55 c1 -30 7 -131 13 -225 6 -93 14 -263 17 -376 8 -286 -10 -353 -111 -404 -89 -45 -189 -26 -275 51 -60 54 -97 130 -122 249 -18 87 -47 454 -52 660 l-2 100 -322 3 c-211 1 -324 -1 -328 -8z"/>
 <path d="M10605 3750 c-4 -6 3 -83 14 -173 11 -89 27 -241 36 -337 15 -176 37 -435 54 -630 23 -252 44 -553 57 -798 4 -67 11 -125 17 -129 5 -3 201 -6 435 -6 l427 0 17 104 c9 57 30 156 47 219 16 63 50 194 75 291 41 156 101 435 121 557 4 24 10 40 14 35 4 -4 18 -46 31 -93 48 -174 133 -423 243 -715 43 -117 117 -347 117 -367 0 -9 5 -20 11 -24 6 -3 205 -6 442 -6 l432 -1 0 79 c0 44 -8 279 -18 524 -10 245 -22 677 -25 960 l-7 515 -289 3 c-159 1 -293 -1 -297 -5 -4 -5 -3 -62 1 -128 13 -164 29 -621 35 -960 l5 -280 -52 160 c-29 88 -132 396 -228 685 l-175 525 -284 3 c-157 1 -288 -1 -293 -6 -4 -4 -31 -109 -58 -232 -169 -751 -256 -1104 -263 -1070 -8 37 -26 260 -37 460 -5 96 -15 252 -21 345 -6 94 -13 244 -17 335 l-7 165 -277 3 c-183 1 -279 -1 -283 -8z"/>
 <path d="M14025 3748 c-3 -7 -29 -87 -58 -178 -30 -91 -73 -217 -95 -280 -22 -63 -84 -241 -137 -395 -53 -154 -171 -489 -261 -744 -91 -255 -163 -466 -160 -469 9 -9 687 -5 696 4 4 5 15 41 25 79 9 39 46 165 82 280 36 116 90 289 120 385 92 295 201 653 213 700 l12 45 32 -80 c18 -44 150 -336 293 -650 144 -313 279 -615 301 -669 l40 -99 348 0 c248 0 349 3 352 11 3 10 -92 200 -218 437 -62 116 -723 1433 -771 1535 l-44 95 -383 3 c-301 2 -383 0 -387 -10z"/>
 <path d="M187 2673 c-14 -22 -29 -278 -23 -383 29 -511 221 -981 543 -1330 l60 -64 219 126 c120 69 323 186 449 259 127 73 307 176 400 230 94 54 171 104 173 112 2 10 -89 68 -275 175 -153 88 -333 192 -400 231 -67 38 -196 112 -285 164 -90 52 -313 180 -496 286 -360 208 -357 206 -365 194z"/>
 <path d="M3037 2513 c-4 -3 -7 -474 -7 -1045 0 -881 2 -1039 14 -1044 18 -7 205 81 306 143 189 117 421 319 553 483 158 196 297 454 368 685 22 71 27 64 -96 135 -111 65 -521 301 -840 485 -132 76 -249 144 -260 151 -22 16 -29 17 -38 7z"/>
 <path d="M2600 1683 c-91 -53 -239 -139 -330 -191 -91 -52 -201 -116 -245 -142 -44 -26 -294 -170 -555 -320 -261 -150 -483 -281 -493 -290 -18 -17 -16 -20 60 -75 273 -200 607 -332 962 -380 171 -24 478 -17 640 14 62 12 122 26 132 32 18 9 19 35 17 726 -2 467 -6 717 -13 719 -5 2 -84 -40 -175 -93z"/>
 </g>

</svg>